{
	"asset":
	{
		"version": "2.0",
		"generator": "Unreal Engine 4.26.0 glTF Exporter 1.0.6"
	},
	"scene": 0,
	"accessors": [
		{
			"bufferView": 0,
			"count": 10044,
			"type": "SCALAR",
			"componentType": 5123
		},
		{
			"bufferView": 1,
			"count": 2137,
			"type": "VEC3",
			"componentType": 5126,
			"min": [ -0.322014153,
				-0.03125,
				-0.322013855
			],
			"max": [ 0.0250012204,
				0.322777867,
				0.0249999985
			]
		},
		{
			"bufferView": 2,
			"count": 2137,
			"type": "VEC3",
			"componentType": 5126
		},
		{
			"bufferView": 3,
			"count": 2137,
			"type": "VEC4",
			"componentType": 5126
		},
		{
			"bufferView": 4,
			"count": 2137,
			"type": "VEC2",
			"componentType": 5126
		},
		{
			"bufferView": 5,
			"count": 2137,
			"type": "VEC2",
			"componentType": 5126
		}
	],
	"buffers": [
		{
			"uri": "Coord.bin",
			"byteLength": 139760
		}
	],
	"bufferViews": [
		{
			"buffer": 0,
			"byteLength": 20088,
			"target": 34963
		},
		{
			"buffer": 0,
			"byteLength": 25644,
			"byteOffset": 20088,
			"target": 34962
		},
		{
			"buffer": 0,
			"byteLength": 25644,
			"byteOffset": 45732,
			"target": 34962
		},
		{
			"buffer": 0,
			"byteLength": 34192,
			"byteOffset": 71376,
			"target": 34962
		},
		{
			"buffer": 0,
			"byteLength": 17096,
			"byteOffset": 105568,
			"target": 34962
		},
		{
			"buffer": 0,
			"byteLength": 17096,
			"byteOffset": 122664,
			"target": 34962
		}
	],
	"materials": [
		{
			"name": "M_Ruler",
			"pbrMetallicRoughness":
			{
				"baseColorFactor": [ 0,
					0,
					0,
					0.949999988
				]
			},
			"alphaMode": "BLEND",
			"extensions":
			{
				"KHR_materials_unlit":
				{
				}
			}
		}
	],
	"meshes": [
		{
			"name": "Coord",
			"primitives": [
				{
					"attributes":
					{
						"POSITION": 1,
						"NORMAL": 2,
						"TANGENT": 3,
						"TEXCOORD_0": 4,
						"TEXCOORD_1": 5
					},
					"indices": 0,
					"material": 0
				}
			]
		}
	],
	"nodes": [
		{
			"mesh": 0
		}
	],
	"scenes": [
		{
			"nodes": [ 0 ]
		}
	],
	"extensionsUsed": [
		"KHR_materials_unlit"
	]
}