{
  "accessors": [
    {
      "bufferView": 2,
      "componentType": 5126,
      "count": 891,
      "max": [
        10.229179382324219,
        -1.7810659408569336,
        9.00029468536377
      ],
      "min": [
        -10.542619705200195,
        -29.12113380432129,
        -8.023131370544434
      ],
      "type": "VEC3"
    },
    {
      "bufferView": 2,
      "byteOffset": 10692,
      "componentType": 5126,
      "count": 891,
      "max": [
        0.9931736588478088,
        0.9955545663833618,
        0.9968566298484802
      ],
      "min": [
        -0.9933856129646301,
        -0.9917138814926147,
        -0.9949480295181274
      ],
      "type": "VEC3"
    },
    {
      "bufferView": 1,
      "componentType": 5126,
      "count": 891,
      "max": [
        0.9996190071105957,
        0.8333079814910889
      ],
      "min": [
        0.00012199999764561653,
        0.00036700000055134296
      ],
      "type": "VEC2"
    },
    {
      "bufferView": 0,
      "componentType": 5125,
      "count": 891,
      "type": "SCALAR"
    },
    {
      "bufferView": 2,
      "byteOffset": 21384,
      "componentType": 5126,
      "count": 65532,
      "max": [
        10.256956100463867,
        -1.7809449434280396,
        9.159980773925781
      ],
      "min": [
        -10.656299591064453,
        -29.158700942993164,
        -8.166505813598633
      ],
      "type": "VEC3"
    },
    {
      "bufferView": 2,
      "byteOffset": 807768,
      "componentType": 5126,
      "count": 65532,
      "max": [
        0.999935507774353,
        1.0,
        0.9999998807907104
      ],
      "min": [
        -0.9999486207962036,
        -1.0,
        -0.9999480247497559
      ],
      "type": "VEC3"
    },
    {
      "bufferView": 1,
      "byteOffset": 7128,
      "componentType": 5126,
      "count": 65532,
      "max": [
        0.9981619715690613,
        0.8778989911079407
      ],
      "min": [
        0.00012199999764561653,
        0.0004239999980200082
      ],
      "type": "VEC2"
    },
    {
      "bufferView": 0,
      "byteOffset": 3564,
      "componentType": 5125,
      "count": 300273,
      "type": "SCALAR"
    },
    {
      "bufferView": 2,
      "byteOffset": 1594152,
      "componentType": 5126,
      "count": 65532,
      "max": [
        9.201569557189941,
        -2.667210102081299,
        9.114153861999512
      ],
      "min": [
        -9.897798538208008,
        -29.094501495361328,
        -8.149703025817871
      ],
      "type": "VEC3"
    },
    {
      "bufferView": 2,
      "byteOffset": 2380536,
      "componentType": 5126,
      "count": 65532,
      "max": [
        0.9998741149902344,
        0.9914024472236633,
        0.999987006187439
      ],
      "min": [
        -0.9998827576637268,
        -0.999999463558197,
        -0.9999923706054688
      ],
      "type": "VEC3"
    },
    {
      "bufferView": 1,
      "byteOffset": 531384,
      "componentType": 5126,
      "count": 65532,
      "max": [
        0.9996269941329956,
        0.9544680118560791
      ],
      "min": [
        0.00012199999764561653,
        0.0003659999929368496
      ],
      "type": "VEC2"
    },
    {
      "bufferView": 0,
      "byteOffset": 1204656,
      "componentType": 5125,
      "count": 279993,
      "type": "SCALAR"
    },
    {
      "bufferView": 2,
      "byteOffset": 3166920,
      "componentType": 5126,
      "count": 65532,
      "max": [
        10.114776611328125,
        -1.7809460163116455,
        9.193477630615234
      ],
      "min": [
        -10.324982643127441,
        -27.902908325195313,
        -8.158198356628418
      ],
      "type": "VEC3"
    },
    {
      "bufferView": 2,
      "byteOffset": 3953304,
      "componentType": 5126,
      "count": 65532,
      "max": [
        0.9999399781227112,
        0.9999996423721313,
        1.0
      ],
      "min": [
        -0.9999648928642273,
        -0.999999463558197,
        -0.9999930262565613
      ],
      "type": "VEC3"
    },
    {
      "bufferView": 1,
      "byteOffset": 1055640,
      "componentType": 5126,
      "count": 65532,
      "max": [
        0.9996219873428345,
        0.9303879737854004
      ],
      "min": [
        0.00012199999764561653,
        0.0003659999929368496
      ],
      "type": "VEC2"
    },
    {
      "bufferView": 0,
      "byteOffset": 2324628,
      "componentType": 5125,
      "count": 262611,
      "type": "SCALAR"
    },
    {
      "bufferView": 2,
      "byteOffset": 4739688,
      "componentType": 5126,
      "count": 65532,
      "max": [
        10.256956100463867,
        -1.7809460163116455,
        9.169583320617676
      ],
      "min": [
        -10.642509460449219,
        -29.241437911987305,
        -8.126396179199219
      ],
      "type": "VEC3"
    },
    {
      "bufferView": 2,
      "byteOffset": 5526072,
      "componentType": 5126,
      "count": 65532,
      "max": [
        0.9999215006828308,
        1.0,
        0.9999665021896362
      ],
      "min": [
        -0.9999825358390808,
        -0.9999886155128479,
        -0.9999970197677612
      ],
      "type": "VEC3"
    },
    {
      "bufferView": 1,
      "byteOffset": 1579896,
      "componentType": 5126,
      "count": 65532,
      "max": [
        0.9996259808540344,
        0.9288330078125
      ],
      "min": [
        0.00012199999764561653,
        0.0003659999929368496
      ],
      "type": "VEC2"
    },
    {
      "bufferView": 0,
      "byteOffset": 3375072,
      "componentType": 5125,
      "count": 255126,
      "type": "SCALAR"
    },
    {
      "bufferView": 2,
      "byteOffset": 6312456,
      "componentType": 5126,
      "count": 27368,
      "max": [
        10.089967727661133,
        -8.041069984436035,
        6.61851692199707
      ],
      "min": [
        2.1677350997924805,
        -26.54373550415039,
        -8.152274131774902
      ],
      "type": "VEC3"
    },
    {
      "bufferView": 2,
      "byteOffset": 6640872,
      "componentType": 5126,
      "count": 27368,
      "max": [
        0.9998944997787476,
        0.9993597865104675,
        0.9999998807907104
      ],
      "min": [
        -0.9975048899650574,
        -1.0,
        -0.999945342540741
      ],
      "type": "VEC3"
    },
    {
      "bufferView": 1,
      "byteOffset": 2104152,
      "componentType": 5126,
      "count": 27368,
      "max": [
        0.9996179938316345,
        0.9134809970855713
      ],
      "min": [
        0.00012199999764561653,
        0.0003929999948013574
      ],
      "type": "VEC2"
    },
    {
      "bufferView": 0,
      "byteOffset": 4395576,
      "componentType": 5125,
      "count": 98232,
      "type": "SCALAR"
    },
    {
      "bufferView": 2,
      "byteOffset": 6969288,
      "componentType": 5126,
      "count": 4,
      "max": [
        -9.564959526062012,
        -1.7810419797897339,
        -1.272318959236145
      ],
      "min": [
        -9.627108573913574,
        -1.854259967803955,
        -1.2744660377502441
      ],
      "type": "VEC3"
    },
    {
      "bufferView": 2,
      "byteOffset": 6969336,
      "componentType": 5126,
      "count": 4,
      "max": [
        -0.28432297706604004,
        0.24901196360588074,
        0.9258356690406799
      ],
      "min": [
        -0.28436189889907837,
        0.2489309161901474,
        0.9258258938789368
      ],
      "type": "VEC3"
    },
    {
      "bufferView": 1,
      "byteOffset": 2323096,
      "componentType": 5126,
      "count": 4,
      "max": [
        0.5926520228385925,
        0.015502999536693096
      ],
      "min": [
        0.5911870002746582,
        0.014448000118136406
      ],
      "type": "VEC2"
    },
    {
      "bufferView": 0,
      "byteOffset": 4788504,
      "componentType": 5125,
      "count": 6,
      "type": "SCALAR"
    }
  ],
  "asset": {
    "extras": {
      "author": "artfletch (https://sketchfab.com/artfletch)",
      "license": "CC-BY-4.0 (http://creativecommons.org/licenses/by/4.0/)",
      "source": "https://sketchfab.com/3d-models/bronze-bo-bell-fc83df984c3848d98138fd52fc368bc7",
      "title": "Bronze Bo Bell"
    },
    "generator": "Sketchfab-15.25.0",
    "version": "2.0"
  },
  "bufferViews": [
    {
      "buffer": 0,
      "byteLength": 4788528,
      "name": "floatBufferViews",
      "target": 34963
    },
    {
      "buffer": 0,
      "byteLength": 2323128,
      "byteOffset": 4788528,
      "byteStride": 8,
      "name": "floatBufferViews",
      "target": 34962
    },
    {
      "buffer": 0,
      "byteLength": 6969384,
      "byteOffset": 7111656,
      "byteStride": 12,
      "name": "floatBufferViews",
      "target": 34962
    }
  ],
  "buffers": [
    {
      "byteLength": 14081040,
      "uri": "scene.bin"
    }
  ],
  "extensionsUsed": [
    "KHR_materials_specular"
  ],
  "images": [
    {
      "uri": "textures/BMBronzeBoBell01_Model_4BMBronzeBoBell01_Model_4_u1_v1_baseColor.jpeg"
    }
  ],
  "materials": [
    {
      "doubleSided": true,
      "extensions": {
        "KHR_materials_specular": {
          "specularColorFactor": [
            1.0,
            1.0,
            1.0
          ],
          "specularFactor": 0.1818866226671577
        }
      },
      "name": "BMBronzeBoBell01_Model_4BMBronzeBoBell01_Model_4_u1_v1",
      "pbrMetallicRoughness": {
        "baseColorTexture": {
          "index": 0
        },
        "metallicFactor": 0.4551720601971431,
        "roughnessFactor": 0.878843474561728
      }
    }
  ],
  "meshes": [
    {
      "name": "Object_0",
      "primitives": [
        {
          "attributes": {
            "NORMAL": 1,
            "POSITION": 0,
            "TEXCOORD_0": 2
          },
          "indices": 3,
          "material": 0,
          "mode": 4
        }
      ]
    },
    {
      "name": "Object_1",
      "primitives": [
        {
          "attributes": {
            "NORMAL": 5,
            "POSITION": 4,
            "TEXCOORD_0": 6
          },
          "indices": 7,
          "material": 0,
          "mode": 4
        }
      ]
    },
    {
      "name": "Object_2",
      "primitives": [
        {
          "attributes": {
            "NORMAL": 9,
            "POSITION": 8,
            "TEXCOORD_0": 10
          },
          "indices": 11,
          "material": 0,
          "mode": 4
        }
      ]
    },
    {
      "name": "Object_3",
      "primitives": [
        {
          "attributes": {
            "NORMAL": 13,
            "POSITION": 12,
            "TEXCOORD_0": 14
          },
          "indices": 15,
          "material": 0,
          "mode": 4
        }
      ]
    },
    {
      "name": "Object_4",
      "primitives": [
        {
          "attributes": {
            "NORMAL": 17,
            "POSITION": 16,
            "TEXCOORD_0": 18
          },
          "indices": 19,
          "material": 0,
          "mode": 4
        }
      ]
    },
    {
      "name": "Object_5",
      "primitives": [
        {
          "attributes": {
            "NORMAL": 21,
            "POSITION": 20,
            "TEXCOORD_0": 22
          },
          "indices": 23,
          "material": 0,
          "mode": 4
        }
      ]
    },
    {
      "name": "Object_6",
      "primitives": [
        {
          "attributes": {
            "NORMAL": 25,
            "POSITION": 24,
            "TEXCOORD_0": 26
          },
          "indices": 27,
          "material": 0,
          "mode": 4
        }
      ]
    }
  ],
  "nodes": [
    {
      "children": [
        1
      ],
      "matrix": [
        1.0,
        0.0,
        0.0,
        0.0,
        0.0,
        -1.0,
        -4.440892098500626e-16,
        0.0,
        0.0,
        4.440892098500626e-16,
        -1.0,
        0.0,
        0.0,
        0.0,
        0.0,
        1.0
      ],
      "name": "Sketchfab_model"
    },
    {
      "children": [
        2,
        3,
        4,
        5,
        6,
        7,
        8
      ],
      "name": "BMBronzeBoBell02.obj.cleaner.materialmerger.gles"
    },
    {
      "mesh": 0,
      "name": "Object_2"
    },
    {
      "mesh": 1,
      "name": "Object_3"
    },
    {
      "mesh": 2,
      "name": "Object_4"
    },
    {
      "mesh": 3,
      "name": "Object_5"
    },
    {
      "mesh": 4,
      "name": "Object_6"
    },
    {
      "mesh": 5,
      "name": "Object_7"
    },
    {
      "mesh": 6,
      "name": "Object_8"
    }
  ],
  "samplers": [
    {
      "magFilter": 9729,
      "minFilter": 9987,
      "wrapS": 10497,
      "wrapT": 10497
    }
  ],
  "scene": 0,
  "scenes": [
    {
      "name": "Sketchfab_Scene",
      "nodes": [
        0
      ]
    }
  ],
  "textures": [
    {
      "sampler": 0,
      "source": 0
    }
  ]
}
