{
	"asset":
	{
		"version": "2.0",
		"generator": "Unreal Engine 4.26.0 glTF Exporter 1.0.6"
	},
	"scene": 0,
	"accessors": [
		{
			"bufferView": 0,
			"count": 31680,
			"type": "SCALAR",
			"componentType": 5123
		},
		{
			"bufferView": 1,
			"count": 6149,
			"type": "VEC3",
			"componentType": 5126,
			"min": [ -0.299999982,
				-0.049999997,
				-0.049999997
			],
			"max": [ 2.04999995,
				2.54999995,
				0.049999997
			]
		},
		{
			"bufferView": 2,
			"count": 6149,
			"type": "VEC3",
			"componentType": 5126
		},
		{
			"bufferView": 3,
			"count": 6149,
			"type": "VEC4",
			"componentType": 5126
		},
		{
			"bufferView": 4,
			"count": 6149,
			"type": "VEC2",
			"componentType": 5126
		},
		{
			"bufferView": 5,
			"count": 6149,
			"type": "VEC2",
			"componentType": 5126
		},
		{
			"bufferView": 6,
			"count": 720,
			"type": "SCALAR",
			"componentType": 5123
		},
		{
			"bufferView": 7,
			"count": 270,
			"type": "VEC3",
			"componentType": 5126,
			"min": [ -0.099999994,
				0,
				-0.250000209
			],
			"max": [ 2.0999999,
				2,
				-0.0499996953
			]
		},
		{
			"bufferView": 8,
			"count": 270,
			"type": "VEC3",
			"componentType": 5126
		},
		{
			"bufferView": 9,
			"count": 270,
			"type": "VEC4",
			"componentType": 5126
		},
		{
			"bufferView": 10,
			"count": 270,
			"type": "VEC2",
			"componentType": 5126
		},
		{
			"bufferView": 11,
			"count": 270,
			"type": "VEC2",
			"componentType": 5126
		},
		{
			"bufferView": 12,
			"count": 4776,
			"type": "SCALAR",
			"componentType": 5123
		},
		{
			"bufferView": 13,
			"count": 1052,
			"type": "VEC3",
			"componentType": 5126,
			"min": [ -0.310006082,
				-0.0599988922,
				-0.0599996932
			],
			"max": [ 2.59998035,
				2.79436755,
				0.0600012206
			]
		},
		{
			"bufferView": 14,
			"count": 1052,
			"type": "VEC3",
			"componentType": 5126
		},
		{
			"bufferView": 15,
			"count": 1052,
			"type": "VEC4",
			"componentType": 5126
		},
		{
			"bufferView": 16,
			"count": 1052,
			"type": "VEC2",
			"componentType": 5126
		},
		{
			"bufferView": 17,
			"count": 1052,
			"type": "VEC2",
			"componentType": 5126
		}
	],
	"buffers": [
		{
			"uri": "BarChart.bin",
			"byteLength": 492728
		}
	],
	"bufferViews": [
		{
			"buffer": 0,
			"byteLength": 63360,
			"target": 34963
		},
		{
			"buffer": 0,
			"byteLength": 73788,
			"byteOffset": 63360,
			"target": 34962
		},
		{
			"buffer": 0,
			"byteLength": 73788,
			"byteOffset": 137148,
			"target": 34962
		},
		{
			"buffer": 0,
			"byteLength": 98384,
			"byteOffset": 210936,
			"target": 34962
		},
		{
			"buffer": 0,
			"byteLength": 49192,
			"byteOffset": 309320,
			"target": 34962
		},
		{
			"buffer": 0,
			"byteLength": 49192,
			"byteOffset": 358512,
			"target": 34962
		},
		{
			"buffer": 0,
			"byteLength": 1440,
			"byteOffset": 407704,
			"target": 34963
		},
		{
			"buffer": 0,
			"byteLength": 3240,
			"byteOffset": 409144,
			"target": 34962
		},
		{
			"buffer": 0,
			"byteLength": 3240,
			"byteOffset": 412384,
			"target": 34962
		},
		{
			"buffer": 0,
			"byteLength": 4320,
			"byteOffset": 415624,
			"target": 34962
		},
		{
			"buffer": 0,
			"byteLength": 2160,
			"byteOffset": 419944,
			"target": 34962
		},
		{
			"buffer": 0,
			"byteLength": 2160,
			"byteOffset": 422104,
			"target": 34962
		},
		{
			"buffer": 0,
			"byteLength": 9552,
			"byteOffset": 424264,
			"target": 34963
		},
		{
			"buffer": 0,
			"byteLength": 12624,
			"byteOffset": 433816,
			"target": 34962
		},
		{
			"buffer": 0,
			"byteLength": 12624,
			"byteOffset": 446440,
			"target": 34962
		},
		{
			"buffer": 0,
			"byteLength": 16832,
			"byteOffset": 459064,
			"target": 34962
		},
		{
			"buffer": 0,
			"byteLength": 8416,
			"byteOffset": 475896,
			"target": 34962
		},
		{
			"buffer": 0,
			"byteLength": 8416,
			"byteOffset": 484312,
			"target": 34962
		}
	],
	"materials": [
		{
			"name": "M_Tick",
			"pbrMetallicRoughness":
			{
				"baseColorFactor": [ 0.84375,
					0.0791020021,
					0.0791020021,
					1
				]
			},
			"extensions":
			{
				"KHR_materials_unlit":
				{
				}
			}
		},
		{
			"name": "M_Bar",
			"pbrMetallicRoughness":
			{
				"baseColorFactor": [ 0.209169999,
					0.517705977,
					0.84375,
					1
				],
				"metallicFactor": 0
			}
		},
		{
			"name": "M_Axis",
			"pbrMetallicRoughness":
			{
				"baseColorFactor": [ 0.84375,
					0.0791020021,
					0.0791020021,
					1
				]
			},
			"extensions":
			{
				"KHR_materials_unlit":
				{
				}
			}
		}
	],
	"meshes": [
		{
			"name": "BarChart",
			"primitives": [
				{
					"attributes":
					{
						"POSITION": 1,
						"NORMAL": 2,
						"TANGENT": 3,
						"TEXCOORD_0": 4,
						"TEXCOORD_1": 5
					},
					"indices": 0,
					"material": 0
				},
				{
					"attributes":
					{
						"POSITION": 7,
						"NORMAL": 8,
						"TANGENT": 9,
						"TEXCOORD_0": 10,
						"TEXCOORD_1": 11
					},
					"indices": 6,
					"material": 1
				},
				{
					"attributes":
					{
						"POSITION": 13,
						"NORMAL": 14,
						"TANGENT": 15,
						"TEXCOORD_0": 16,
						"TEXCOORD_1": 17
					},
					"indices": 12,
					"material": 2
				}
			]
		}
	],
	"nodes": [
		{
			"mesh": 0
		}
	],
	"scenes": [
		{
			"nodes": [ 0 ]
		}
	],
	"extensionsUsed": [
		"KHR_materials_unlit"
	]
}