<svg width="128" height="129" viewBox="0 0 128 129" fill="none" xmlns="http://www.w3.org/2000/svg">
<rect width="128" height="128" transform="translate(0 0.904785)" fill="white"/>
<path d="M99.7978 85.5541C99.5955 84.9459 99.191 84.3378 98.7865 83.3243C97.573 80.4865 95.5506 75.0135 95.5506 69.9459V53.7297C95.5506 35.8919 85.6404 21.0946 69.0562 18.6622C68.8539 16.027 66.6292 14 64 14H63.7978C61.1685 14 58.9438 16.027 58.7416 18.6622C42.1573 21.0946 32.2472 35.8919 32.2472 53.7297V70.1487C32.2472 76.027 29.618 82.1081 28.6067 84.5405C28.4045 84.9459 28.2022 85.1487 28.2022 85.3514V85.5541C28 85.7568 28 85.9595 28 86.1622C28 87.7838 29.2135 89 30.8315 89C30.8315 89 39.5281 85.3514 64 85.3514C86.8539 85.3514 97.1685 89 97.1685 89C98.5843 89 100 87.7838 100 86.1622C100 85.9595 99.7978 85.9595 99.7978 85.5541Z" fill="black"/>
<path d="M57.9473 106.317H60.0254V108.737H65.125V116.407H63.1016V115.464H60.0254V119.866H57.9473V115.464H54.8711V116.448H52.8477V108.737H57.9473V106.317ZM63.1016 110.624H60.0254V113.577H63.1016V110.624ZM54.8711 113.577H57.9473V110.624H54.8711V113.577ZM71.0493 119.743V106.892H83.4907V119.729H81.5356V119.251H73.0044V119.743H71.0493ZM81.5356 108.573H73.0044V117.569H81.5356V108.573ZM80.77 113.522H79.7514C80.1297 113.851 80.5102 114.201 80.893 114.575L80.1684 115.231H81.0981V116.831H73.3735V115.231H76.1626V113.522H73.729V111.923H76.1626V110.952H73.5102V109.353H80.9614V110.952H77.9946V111.923H80.77V113.522ZM78.3774 114.206L79.1704 113.522H77.9946V115.231H79.3345C78.9744 114.821 78.6554 114.479 78.3774 114.206ZM93.0517 109.544H90.9599C90.8278 109.872 90.6933 110.191 90.5566 110.501H92.9287V112.046H91.7255V113.249H93.0517V114.794H91.7255V116.763L92.874 116.011C92.9013 116.749 92.9515 117.414 93.0244 118.007C92.0947 118.508 91.2835 119.114 90.5908 119.825L89.6748 118.472C89.93 118.216 90.0576 117.784 90.0576 117.173V114.794H88.8271V113.249H90.0576V112.046H89.7568C89.6064 112.306 89.4515 112.556 89.292 112.798C89.1005 111.941 88.9091 111.221 88.7177 110.638C89.4196 109.243 89.9345 107.794 90.2627 106.29L91.8896 106.646C91.7666 107.119 91.6344 107.575 91.4931 108.013H93.0517V109.544ZM95.0615 119.702H93.3935V106.946H101.815V117.829C101.815 118.449 101.681 118.918 101.412 119.237C101.148 119.556 100.747 119.725 100.209 119.743C99.6757 119.761 99.0035 119.771 98.1923 119.771C98.0921 119.105 97.969 118.49 97.8232 117.925C98.525 117.943 99.0947 117.952 99.5322 117.952C99.9423 117.952 100.147 117.715 100.147 117.241V108.587H95.0615V119.702ZM99.7236 110.993H95.5127V109.421H99.7236V110.993ZM99.4775 111.95V116.913H97.0986V117.638H95.7041V111.95H99.4775ZM97.0986 113.345V115.505H98.083V113.345H97.0986ZM112.033 109.544H109.538C109.383 109.89 109.221 110.223 109.052 110.542H111.65V112.087H110.501V113.468H111.951V115.013H110.501V117.05C110.966 116.804 111.486 116.521 112.06 116.202C112.096 116.858 112.151 117.46 112.224 118.007C110.665 118.854 109.686 119.479 109.285 119.88L108.218 118.526C108.519 118.198 108.66 117.779 108.642 117.269V115.013H107.042V113.468H108.642V112.087H108.15C107.949 112.388 107.744 112.675 107.535 112.948C107.334 112.091 107.152 111.362 106.988 110.761C107.79 109.412 108.378 107.931 108.751 106.317C109.964 106.554 110.579 106.673 110.597 106.673C110.456 107.133 110.308 107.58 110.153 108.013H112.033V109.544ZM117.214 119.825H115.355V115.327H114.111V116.134H112.279V109.052H115.355V106.399H117.214V109.052H120.29V116.134H118.458V115.327H117.214V119.825ZM118.458 110.733H117.214V113.646H118.458V110.733ZM114.111 113.646H115.355V110.733H114.111V113.646Z" fill="black"/>
</svg>
